<?xml version="1.0" encoding="UTF-8" standalone="no"?>
<!-- Created with Inkscape (http://www.inkscape.org/) -->

<svg
   width="121.71mm"
   height="49.860424mm"
   viewBox="0 0 121.71 49.860424"
   version="1.1"
   id="svg1"
   xml:space="preserve"
   inkscape:version="1.3.2 (091e20e, 2023-11-25, custom)"
   sodipodi:docname="ABtutoringLogoText.svg"
   inkscape:export-filename="ABtutoringLogoText.png"
   inkscape:export-xdpi="174.07271"
   inkscape:export-ydpi="174.07271"
   xmlns:inkscape="http://www.inkscape.org/namespaces/inkscape"
   xmlns:sodipodi="http://sodipodi.sourceforge.net/DTD/sodipodi-0.dtd"
   xmlns="http://www.w3.org/2000/svg"
   xmlns:svg="http://www.w3.org/2000/svg"><sodipodi:namedview
     id="namedview1"
     pagecolor="#22204a"
     bordercolor="#000000"
     borderopacity="0.25"
     inkscape:showpageshadow="2"
     inkscape:pageopacity="0.0"
     inkscape:pagecheckerboard="0"
     inkscape:deskcolor="#d1d1d1"
     inkscape:document-units="mm"
     showguides="true"
     inkscape:zoom="1.4556538"
     inkscape:cx="210.55831"
     inkscape:cy="194.07087"
     inkscape:window-width="1920"
     inkscape:window-height="1430"
     inkscape:window-x="432"
     inkscape:window-y="-11"
     inkscape:window-maximized="1"
     inkscape:current-layer="layer1" /><defs
     id="defs1"><rect
       x="92.054855"
       y="458.51389"
       width="588.73889"
       height="378.91055"
       id="rect10" /><clipPath
       clipPathUnits="userSpaceOnUse"
       id="clipPath1"><rect
         style="opacity:1;fill:none;stroke:#000000;stroke-width:0.365001"
         id="rect2"
         width="114.14687"
         height="89.42717"
         x="53.438187"
         y="44.713585" /></clipPath><filter
       inkscape:collect="always"
       style="color-interpolation-filters:sRGB"
       id="filter4"
       x="-0.036881048"
       y="-0.021294774"
       width="1.0737621"
       height="1.0425895"><feGaussianBlur
         inkscape:collect="always"
         stdDeviation="0.093720132"
         id="feGaussianBlur4" /></filter><filter
       inkscape:collect="always"
       style="color-interpolation-filters:sRGB"
       id="filter5"
       x="-0.033745495"
       y="-0.022502002"
       width="1.067491"
       height="1.045004"><feGaussianBlur
         inkscape:collect="always"
         stdDeviation="0.095075602"
         id="feGaussianBlur5" /></filter><filter
       inkscape:collect="always"
       style="color-interpolation-filters:sRGB"
       id="filter6"
       x="-0.018114049"
       y="-0.052998924"
       width="1.0362281"
       height="1.1059978"><feGaussianBlur
         inkscape:collect="always"
         stdDeviation="0.08715694"
         id="feGaussianBlur6" /></filter><filter
       inkscape:collect="always"
       style="color-interpolation-filters:sRGB"
       id="filter7"
       x="-0.049889597"
       y="-0.018508299"
       width="1.0997792"
       height="1.0370166"><feGaussianBlur
         inkscape:collect="always"
         stdDeviation="0.088201562"
         id="feGaussianBlur7" /></filter><filter
       inkscape:collect="always"
       style="color-interpolation-filters:sRGB"
       id="filter8"
       x="-0.0277831"
       y="-0.026259837"
       width="1.0555662"
       height="1.0525197"><feGaussianBlur
         inkscape:collect="always"
         stdDeviation="0.097059947"
         id="feGaussianBlur8" /></filter><filter
       inkscape:collect="always"
       style="color-interpolation-filters:sRGB"
       id="filter9"
       x="-0.016876811"
       y="-0.067471044"
       width="1.0337536"
       height="1.1349421"><feGaussianBlur
         inkscape:collect="always"
         stdDeviation="0.082827483"
         id="feGaussianBlur9" /></filter></defs><g
     inkscape:label="Layer 1"
     inkscape:groupmode="layer"
     id="layer1"
     transform="translate(-70.507052,-46.536031)"><g
       id="g10"
       inkscape:label="logo"
       inkscape:export-filename="favicon.svg"
       inkscape:export-xdpi="173.90956"
       inkscape:export-ydpi="173.90956"
       transform="matrix(0.66676954,0,0,0.66676954,23.495097,15.507223)"><path
         style="display:inline;opacity:1;fill:#882231;fill-opacity:1;stroke:none;stroke-width:0.365001"
         d="m 82.429313,121.31513 c 0,0 -0.566334,-7.65037 -0.181762,-19.34634 -20.972528,-19.511763 -10.153159,-43.646458 3.817014,-50.711752 17.696305,-9.882614 30.974005,-2.31508 38.533655,5.08935 7.55965,7.40443 8.90637,15.72246 8.90637,15.72246 v 6.089047 c 0,0 5.09264,9.116414 6.27537,12.547127 -0.0847,1.099451 -0.75103,1.594822 -1.93512,2.153586 -1.18409,0.558764 -4.15849,0.203813 -4.15849,0.203813 l 0.5297,6.794992 c 0,0 -3.94524,0.901797 -6.16433,-0.02433 1.59792,1.527657 5.63142,1.087887 6.23773,1.964017 0.3257,0.47066 0.27359,1.32623 0.0376,1.71667 -0.23597,0.39044 -0.91338,0.45441 -0.91338,0.45441 0,0 0.1797,2.74667 0,4.8167 -4.45317,3.77299 -12.23086,2.41946 -13.17779,2.36292 -2.52137,6.36974 -5.55612,10.16733 -5.55612,10.16733 z"
         id="path2"
         sodipodi:nodetypes="ccczccczcccszccccc"
         inkscape:label="head" /><g
         id="g9"
         inkscape:label="click"><path
           style="opacity:1;fill:#f9ecee;fill-opacity:1;stroke:none;stroke-width:0.365001;stroke-opacity:1;filter:url(#filter9)"
           d="m 103.96818,74.454482 c 0,0 -2.77574,0.05811 -7.634032,0.408967 -4.858288,0.350854 -6.070233,-3.617725 -0.227203,-2.817321 5.843035,0.800404 7.861235,2.408354 7.861235,2.408354 z"
           id="path3"
           sodipodi:nodetypes="czzc" /><path
           style="fill:#f9ecee;fill-opacity:1;stroke:none;stroke-width:0.365001;filter:url(#filter4)"
           d="m 105.97597,71.29649 c 0,0 -1.63521,-2.243714 -4.70161,-6.02832 -3.066399,-3.784601 -0.50411,-7.04851 2.18111,-1.797681 2.68523,5.250833 2.5205,7.826001 2.5205,7.826001 z"
           id="path3-6"
           sodipodi:nodetypes="czzc" /><path
           style="fill:#f9ecee;fill-opacity:1;stroke:none;stroke-width:0.365001;filter:url(#filter5)"
           d="m 109.86908,71.623739 c 0,0 1.14151,-2.530823 2.91447,-7.067637 1.77298,-4.536812 5.87697,-3.923904 2.64111,1.006705 -3.23585,4.930619 -5.55555,6.060949 -5.55555,6.060949 z"
           id="path3-5"
           sodipodi:nodetypes="czzc" /><path
           style="fill:#f9ecee;fill-opacity:1;stroke:none;stroke-width:0.365001;filter:url(#filter6)"
           d="m 111.15062,75.750956 c 0,0 2.57943,1.026974 7.00681,3.057807 4.4274,2.030831 6.953,-1.261544 1.19992,-2.559124 -5.75309,-1.297581 -8.20673,-0.498683 -8.20673,-0.498683 z"
           id="path3-3"
           sodipodi:nodetypes="czzc" /><path
           style="fill:#f9ecee;fill-opacity:1;stroke:none;stroke-width:0.365001;filter:url(#filter7)"
           d="m 109.1176,77.948994 c 0,0 1.12714,2.537254 3.32971,6.881767 2.20256,4.344505 -0.98845,6.997043 -2.5102,1.299157 -1.52177,-5.697886 -0.81951,-8.180924 -0.81951,-8.180924 z"
           id="path3-0"
           sodipodi:nodetypes="czzc" /><path
           style="fill:#f9ecee;fill-opacity:1;stroke:none;stroke-width:0.365001;filter:url(#filter8)"
           d="m 105.36329,77.44466 c 0,0 -1.59823,2.270191 -4.1949,6.391298 -2.596644,4.121097 -6.511439,2.745302 -2.403884,-1.486677 4.107554,-4.231987 6.598784,-4.904621 6.598784,-4.904621 z"
           id="path3-33"
           sodipodi:nodetypes="czzc" /><circle
           style="display:none;opacity:1;fill:none;stroke:#000000;stroke-width:0.295136"
           id="path4"
           cx="107.67938"
           cy="74.560951"
           r="3.2333758" /></g></g><text
       xml:space="preserve"
       id="text10"
       style="font-size:74.6667px;line-height:0;font-family:sans-serif;-inkscape-font-specification:'sans-serif, Normal';text-align:justify;letter-spacing:-2.03px;white-space:pre;shape-inside:url(#rect10);display:inline;opacity:1;fill:#f9ecee;fill-opacity:1;stroke:none;stroke-width:1.37953;stroke-opacity:1"
       x="0"
       y="0"
       inkscape:label="text"
       transform="matrix(0.26458333,0,0,0.26458333,93.971232,-68.855357)"><tspan
         x="92.054688"
         y="518.78555"
         id="tspan14"><tspan
           style="font-size:96px;font-family:'Cambria Math';-inkscape-font-specification:'Cambria Math, Normal'"
           id="tspan12">A</tspan><tspan
           style="font-size:96px;line-height:0.7;font-family:'Cambria Math';-inkscape-font-specification:'Cambria Math, Normal'"
           id="tspan13">shton 
</tspan></tspan><tspan
         x="92.054688"
         y="585.98556"
         id="tspan18"><tspan
           style="font-size:85.3333px;letter-spacing:1.86px"
           id="tspan15">B</tspan><tspan
           style="font-size:96px;line-height:0.7;font-family:'Cambria Math';-inkscape-font-specification:'Cambria Math, Normal';letter-spacing:1.86px"
           id="tspan16">rown</tspan><tspan
           dx="3.8900082"
           style="font-weight:bold;font-size:81.7778px;line-height:0.7;font-family:'Bodoni MT';-inkscape-font-specification:'Bodoni MT, Bold';text-align:center;text-anchor:middle"
           id="tspan17">
</tspan></tspan><tspan
         x="92.054688"
         y="621.75463"
         id="tspan22"><tspan
           style="font-weight:bold;font-size:21.3333px;font-family:Sans;-inkscape-font-specification:'Sans, Bold'"
           id="tspan19"> </tspan><tspan
           dx="-12.530001"
           style="font-size:37.3333px;line-height:0.8;font-family:Arial;-inkscape-font-specification:'Arial, Normal';letter-spacing:10.5px"
           id="tspan20">T</tspan><tspan
           style="font-size:37.3333px;line-height:0.8;font-family:Arial;-inkscape-font-specification:'Arial, Normal';text-align:center;letter-spacing:10.5px;text-anchor:middle"
           id="tspan21">UTORING</tspan></tspan></text></g></svg>
