<?xml version="1.0" encoding="UTF-8" standalone="no"?>
<!-- Created with Inkscape (http://www.inkscape.org/) -->

<svg
   width="114.71mm"
   height="57.860001mm"
   viewBox="0 0 114.71 57.860001"
   version="1.1"
   id="svg1"
   xml:space="preserve"
   inkscape:version="1.3.2 (091e20e, 2023-11-25, custom)"
   sodipodi:docname="ABtutoringText - White.svg"
   inkscape:export-filename="ABtutoringLogoText - White.png"
   inkscape:export-xdpi="174.07271"
   inkscape:export-ydpi="174.07271"
   xmlns:inkscape="http://www.inkscape.org/namespaces/inkscape"
   xmlns:sodipodi="http://sodipodi.sourceforge.net/DTD/sodipodi-0.dtd"
   xmlns="http://www.w3.org/2000/svg"
   xmlns:svg="http://www.w3.org/2000/svg"><sodipodi:namedview
     id="namedview1"
     pagecolor="#22204a"
     bordercolor="#000000"
     borderopacity="0.25"
     inkscape:showpageshadow="2"
     inkscape:pageopacity="0.0"
     inkscape:pagecheckerboard="0"
     inkscape:deskcolor="#d1d1d1"
     inkscape:document-units="mm"
     showguides="true"
     inkscape:zoom="2.0586053"
     inkscape:cx="191.39172"
     inkscape:cy="55.134416"
     inkscape:window-width="1920"
     inkscape:window-height="1094"
     inkscape:window-x="-11"
     inkscape:window-y="-11"
     inkscape:window-maximized="1"
     inkscape:current-layer="layer1"
     inkscape:export-bgcolor="#13146900" /><defs
     id="defs1"><rect
       x="92.054855"
       y="458.51389"
       width="588.73889"
       height="378.91055"
       id="rect10" /><clipPath
       clipPathUnits="userSpaceOnUse"
       id="clipPath1"><rect
         style="opacity:1;fill:none;stroke:#000000;stroke-width:0.365001"
         id="rect2"
         width="114.14687"
         height="89.42717"
         x="53.438187"
         y="44.713585" /></clipPath><rect
       x="92.054855"
       y="458.51389"
       width="588.73889"
       height="378.91055"
       id="rect11" /></defs><g
     inkscape:label="Layer 1"
     inkscape:groupmode="layer"
     id="layer1"
     transform="translate(-70.507052,-46.536031)"><g
       id="text10"
       style="font-size:74.6667px;line-height:0;-inkscape-font-specification:'sans-serif, Normal';text-align:justify;letter-spacing:-2.03px;white-space:pre;fill:#f9ecee;stroke-width:1.37953"
       inkscape:label="text-paths"
       transform="matrix(0.26458333,0,0,0.26458333,66.523861,-66.604348)"
       aria-label="Ashton &#10;Brown&#10; TUTORING"><path
         style="font-size:96px;font-family:'Cambria Math';-inkscape-font-specification:'Cambria Math, Normal'"
         d="m 129.36719,518.78555 v -2.29688 q 2.34375,-0.46875 3.46875,-1.03125 1.17187,-0.5625 1.73437,-1.54687 0.5625,-1.03125 0.5625,-2.71875 0,-1.59375 -0.375,-3.42188 -0.375,-1.875 -1.07812,-4.17187 l -1.73438,-6.04688 h -21.84375 l -1.59375,4.59375 q -1.21875,3.46875 -1.59375,5.25 -0.375,1.78125 -0.375,3.23438 0,2.8125 1.40625,4.125 1.45313,1.3125 4.40625,1.73437 v 2.29688 H 92.335937 v -2.29688 q 2.625,-0.42187 4.546875,-3.04687 1.96875,-2.625 3.796878,-7.5 l 19.54687,-51.89063 h 7.40625 l 15.9375,52.26563 q 1.125,3.65625 1.96875,5.57812 0.89063,1.92188 2.10938,3 1.21875,1.07813 3.32812,1.59375 v 2.29688 z m -18,-25.3125 h 19.59375 l -8.90625,-30.23438 z"
         id="path11" /><path
         style="font-size:96px;line-height:0.7;font-family:'Cambria Math';-inkscape-font-specification:'Cambria Math, Normal'"
         d="m 185.79031,484.23867 h -4.5 q -1.03125,-2.8125 -2.4375,-4.40625 -1.40625,-1.64062 -3.1875,-2.29687 -1.78125,-0.65625 -4.35937,-0.65625 -3.75,0 -6,1.78125 -2.20313,1.73437 -2.20313,4.78125 0,2.15625 0.89063,3.5625 0.89062,1.40625 2.76562,2.625 1.875,1.21875 6.60938,3.23437 4.78125,2.0625 7.35937,3.79688 2.625,1.73437 4.07813,4.03125 1.5,2.29687 1.5,5.48437 0,3.70313 -1.26563,6.23438 -1.26562,2.53125 -3.5625,4.125 -2.29687,1.59375 -5.48437,2.29687 -3.14063,0.70313 -6.89063,0.70313 -3.9375,0 -7.64062,-0.60938 -3.70313,-0.5625 -7.21875,-1.5 v -9.79687 h 4.59375 q 1.26562,4.3125 3.75,6.28125 2.48437,1.92187 6.84375,1.92187 1.6875,0 3.28125,-0.32812 1.64062,-0.375 2.90625,-1.17188 1.26562,-0.84375 2.01562,-2.25 0.75,-1.40625 0.75,-3.51562 0,-2.39063 -0.9375,-3.89063 -0.9375,-1.5 -2.90625,-2.71875 -1.96875,-1.26562 -6.9375,-3.375 -4.26562,-1.78125 -6.84375,-3.46875 -2.57812,-1.6875 -4.07812,-3.98437 -1.45313,-2.29688 -1.45313,-5.4375 0,-3.84375 2.0625,-6.65625 2.10938,-2.85938 6.04688,-4.35938 3.9375,-1.5 9.23437,-1.5 3.09375,0 5.95313,0.32813 2.90625,0.28125 7.26562,1.17187 z m 20.37625,-2.90625 0.1875,0.0469 q 3.65625,-3.70313 5.76563,-5.15625 2.15625,-1.5 4.21875,-2.25 2.10937,-0.75 4.5,-0.75 2.57812,0 4.59375,0.60937 2.01562,0.60938 3.51562,1.875 1.54688,1.21875 2.48438,3.04688 0.98437,1.78125 1.45312,4.3125 0.46875,2.48437 0.46875,6.32812 v 17.67188 q 0,4.07812 0.32813,5.57812 0.375,1.45313 1.26562,2.29688 0.9375,0.79687 3.70313,1.54687 v 2.29688 h -18.46875 v -2.29688 q 1.82812,-0.5625 2.625,-0.98437 0.79687,-0.42188 1.3125,-1.17188 0.5625,-0.75 0.84375,-2.29687 0.32812,-1.59375 0.32812,-4.78125 v -12.28125 q 0,-6.23438 -0.65625,-9.51563 -0.60937,-3.32812 -2.48437,-4.96875 -1.82813,-1.64062 -5.15625,-1.64062 -1.875,0 -3.375,0.65625 -1.5,0.65625 -3.46875,2.34375 -1.96875,1.6875 -3,3.46875 -0.98438,1.78125 -0.98438,3.79687 v 17.95313 q 0,3.1875 0.14063,4.54687 0.1875,1.35938 0.65625,2.29688 0.46875,0.89062 1.40625,1.5 0.98437,0.5625 3,1.07812 v 2.29688 h -18.5625 v -2.29688 q 2.0625,-0.5625 2.95312,-1.07812 0.89063,-0.51563 1.35938,-1.3125 0.51562,-0.79688 0.75,-2.29688 0.23437,-1.5 0.23437,-4.73437 v -39.23438 q 0,-4.5 -0.0937,-6.28125 -0.0469,-1.78125 -0.375,-3 -0.28125,-1.26562 -0.84375,-1.96875 -0.51562,-0.70312 -1.45312,-1.125 -0.89063,-0.42187 -3.28125,-0.84375 v -2.4375 l 11.29687,-0.46875 h 2.8125 z m 35.56376,-5.01562 q 2.34375,-0.375 3.79687,-1.3125 1.45313,-0.9375 2.25,-2.39063 0.84375,-1.5 1.3125,-3.70312 0.46875,-2.25 0.98438,-6.51563 h 6.65625 v 11.57813 h 15.14062 v 4.73437 h -15.14062 v 20.85938 q 0,4.54687 0.375,7.26562 0.375,2.67188 1.40625,4.21875 1.03125,1.5 2.34375,2.15625 1.3125,0.65625 3.375,0.65625 1.875,0 3.51562,-0.75 1.64063,-0.79687 3.23438,-2.25 l 2.10937,2.53125 q -3.32812,3.23438 -6.32812,4.6875 -2.95313,1.45313 -6.14063,1.45313 -6.04687,0 -9,-3.5625 -2.95312,-3.60938 -2.95312,-11.25 v -26.01563 h -6.9375 z m 52.81375,43.21875 q -9.75,0 -14.90625,-5.71875 -5.10938,-5.76563 -5.10938,-17.01563 0,-7.73437 2.67188,-13.07812 2.71875,-5.34375 7.40625,-7.92188 4.6875,-2.625 10.6875,-2.625 10.03125,0 15.1875,5.85938 5.15625,5.8125 5.15625,16.73437 0,7.78125 -2.57813,13.125 -2.57812,5.34375 -7.3125,8.01563 -4.73437,2.625 -11.20312,2.625 z M 283.38782,495.8168 q 0,9.65625 3.04687,14.85937 3.09375,5.15625 8.8125,5.15625 3.14063,0 5.34375,-1.5 2.20313,-1.54687 3.5625,-4.125 1.40625,-2.57812 2.01563,-5.95312 0.60937,-3.42188 0.60937,-7.125 0,-6.89063 -1.54687,-11.4375 -1.5,-4.54688 -4.125,-6.65625 -2.625,-2.15625 -6,-2.15625 -5.67188,0 -8.71875,4.92187 -3,4.92188 -3,14.01563 z m 85.345,22.96875 h -18.46875 v -2.29688 q 1.82812,-0.5625 2.625,-0.98437 0.79687,-0.42188 1.3125,-1.17188 0.5625,-0.75 0.84375,-2.29687 0.32812,-1.59375 0.32812,-4.78125 v -12.28125 q 0,-3.28125 -0.1875,-5.95313 -0.1875,-2.67187 -0.65625,-4.35937 -0.42187,-1.73438 -1.07812,-2.67188 -0.60938,-0.98437 -1.5,-1.64062 -0.84375,-0.70313 -1.96875,-1.07813 -1.125,-0.42187 -2.95313,-0.42187 -1.82812,0 -3.46875,0.75 -1.64062,0.70312 -3.60937,2.48437 -1.96875,1.78125 -2.85938,3.51563 -0.89062,1.73437 -0.89062,3.98437 v 17.48438 q 0,4.03125 0.375,5.625 0.375,1.54687 1.40625,2.39062 1.07812,0.79688 3.46875,1.40625 v 2.29688 h -18.375 v -2.29688 q 1.82812,-0.5625 2.57812,-0.98437 0.79688,-0.42188 1.3125,-1.17188 0.5625,-0.75 0.84375,-2.29687 0.32813,-1.54688 0.32813,-4.82813 v -20.4375 q 0,-3 -0.0937,-4.82812 -0.0937,-1.82813 -0.65625,-2.90625 -0.5625,-1.125 -1.73438,-1.64063 -1.125,-0.5625 -3.23437,-0.9375 v -2.48437 l 10.96875,-0.42188 h 2.85937 l -0.51562,7.64063 0.65625,0.1875 q 3.46875,-3.51563 5.57812,-5.01563 2.15625,-1.5 4.3125,-2.29687 2.20313,-0.84375 4.64063,-0.84375 2.53125,0 4.5,0.60937 2.01562,0.5625 3.51562,1.78125 1.54688,1.21875 2.53125,3.04688 0.98438,1.78125 1.45313,4.3125 0.51562,2.53125 0.51562,6.42187 v 17.67188 q 0,3.23437 0.1875,4.6875 0.1875,1.45312 0.65625,2.25 0.46875,0.79687 1.35938,1.35937 0.89062,0.51563 3.09375,1.125 z"
         id="path12" /><path
         style="font-size:85.3333px;letter-spacing:1.86px"
         d="m 147.17966,566.90223 q 0,4.625 -1.74999,8.16667 -1.75,3.54166 -4.70834,5.83333 -3.49999,2.75 -7.70833,3.91666 -4.16666,1.16667 -10.62499,1.16667 h -21.99999 v -62.04164 h 18.37499 q 6.79166,0 10.16666,0.5 3.375,0.5 6.45833,2.08333 3.41667,1.79167 4.95833,4.625 1.54167,2.79166 1.54167,6.70833 0,4.41666 -2.25,7.54166 -2.25,3.08333 -6,4.95833 v 0.33334 q 6.29167,1.29166 9.91667,5.54166 3.62499,4.20833 3.62499,10.66666 z m -13.87499,-27.95832 q 0,-2.25 -0.75,-3.79166 -0.75,-1.54167 -2.41667,-2.5 -1.95833,-1.125 -4.74999,-1.375 -2.79167,-0.29167 -6.91667,-0.29167 h -9.83333 v 17.91666 h 10.66667 q 3.87499,0 6.16666,-0.375 2.29167,-0.41667 4.25,-1.66667 1.95833,-1.24999 2.75,-3.20833 0.83333,-2 0.83333,-4.70833 z m 5.29166,28.29166 q 0,-3.75 -1.12499,-5.95833 -1.125,-2.20834 -4.08334,-3.75 -2,-1.04167 -4.87499,-1.33334 -2.83334,-0.33333 -6.91667,-0.33333 h -12.95833 v 23.08332 h 10.91667 q 5.41666,0 8.87499,-0.54166 3.45833,-0.58333 5.66667,-2.08333 2.33333,-1.625 3.41666,-3.70834 1.08333,-2.08333 1.08333,-5.37499 z"
         id="path13" /><path
         style="font-size:96px;line-height:0.7;font-family:'Cambria Math';-inkscape-font-specification:'Cambria Math, Normal';letter-spacing:1.86px"
         d="m 169.61779,548.95431 0.65625,0.14062 q 2.57813,-3.14062 4.78125,-4.92187 2.20313,-1.82813 4.73438,-2.8125 2.57812,-0.98438 5.8125,-0.98438 2.71875,0 4.92187,0.28125 v 10.78125 h -5.29687 q -1.125,-2.53125 -2.39063,-3.65625 -1.26562,-1.17187 -3.46875,-1.17187 -1.6875,0 -3.375,0.98437 -1.64062,0.98438 -3.1875,2.85938 -1.54687,1.875 -2.15625,3.51562 -0.5625,1.64063 -0.5625,3.89063 v 16.40625 q 0,4.26562 0.51563,5.90625 0.51562,1.59375 1.6875,2.34375 1.21875,0.75 3.60937,1.17187 v 2.29688 h -18.89062 v -2.29688 q 1.78125,-0.5625 2.53125,-0.98437 0.79687,-0.42188 1.35937,-1.17188 0.5625,-0.75 0.84375,-2.29687 0.28125,-1.54688 0.28125,-4.82813 v -20.4375 q 0,-3 -0.0937,-4.82812 -0.0937,-1.82813 -0.65625,-2.90625 -0.5625,-1.125 -1.73437,-1.64063 -1.125,-0.5625 -3.23438,-0.9375 v -2.4375 l 10.96875,-0.46875 h 2.85938 z m 47.89125,37.78125 q -9.75,0 -14.90625,-5.71875 -5.10937,-5.76563 -5.10937,-17.01563 0,-7.73437 2.67187,-13.07812 2.71875,-5.34375 7.40625,-7.92188 4.6875,-2.625 10.6875,-2.625 10.03125,0 15.1875,5.85938 5.15625,5.8125 5.15625,16.73437 0,7.78125 -2.57812,13.125 -2.57813,5.34375 -7.3125,8.01563 -4.73438,2.625 -11.20313,2.625 z m -11.15625,-23.71875 q 0,9.65625 3.04688,14.85937 3.09375,5.15625 8.8125,5.15625 3.14062,0 5.34375,-1.5 2.20312,-1.54687 3.5625,-4.125 1.40625,-2.57812 2.01562,-5.95312 0.60938,-3.42188 0.60938,-7.125 0,-6.89063 -1.54688,-11.4375 -1.5,-4.54688 -4.125,-6.65625 -2.625,-2.15625 -6,-2.15625 -5.67187,0 -8.71875,4.92187 -3,4.92188 -3,14.01563 z m 75.96937,-12.04688 -12.28125,35.25 h -6.51563 l -11.25,-34.78125 q -1.07812,-3.375 -1.82812,-4.73437 -0.70313,-1.40625 -1.54688,-2.0625 -0.79687,-0.70313 -2.625,-1.17188 v -2.29687 h 18.51563 v 2.29687 q -2.71875,0.5625 -3.70313,1.5 -0.9375,0.89063 -0.9375,2.71875 0,1.26563 0.28125,2.67188 0.28125,1.35937 0.84375,3.1875 l 7.35938,23.90625 12.04687,-36.28125 h 6.60938 l 10.21875,36.28125 8.25,-22.92188 q 0.65625,-1.78125 1.07812,-3.375 0.42188,-1.64062 0.42188,-3.04687 0,-1.96875 -1.07813,-3.04688 -1.03125,-1.07812 -3.5625,-1.59375 v -2.29687 h 16.35938 v 2.29687 q -1.3125,0.32813 -1.96875,0.70313 -0.65625,0.32812 -1.3125,1.03125 -0.60938,0.65625 -1.40625,2.10937 -0.75,1.40625 -1.92188,4.40625 l -13.54687,34.5 h -6.32813 z m 89.00062,35.01563 h -18.46875 v -2.29688 q 1.82813,-0.5625 2.625,-0.98437 0.79688,-0.42188 1.3125,-1.17188 0.5625,-0.75 0.84375,-2.29687 0.32813,-1.59375 0.32813,-4.78125 v -12.28125 q 0,-3.28125 -0.1875,-5.95313 -0.1875,-2.67187 -0.65625,-4.35937 -0.42188,-1.73438 -1.07813,-2.67188 -0.60937,-0.98437 -1.5,-1.64062 -0.84375,-0.70313 -1.96875,-1.07813 -1.125,-0.42187 -2.95312,-0.42187 -1.82813,0 -3.46875,0.75 -1.64063,0.70312 -3.60938,2.48437 -1.96875,1.78125 -2.85937,3.51563 -0.89063,1.73437 -0.89063,3.98437 v 17.48438 q 0,4.03125 0.375,5.625 0.375,1.54687 1.40625,2.39062 1.07813,0.79688 3.46875,1.40625 v 2.29688 h -18.375 v -2.29688 q 1.82813,-0.5625 2.57813,-0.98437 0.79687,-0.42188 1.3125,-1.17188 0.5625,-0.75 0.84375,-2.29687 0.32812,-1.54688 0.32812,-4.82813 v -20.4375 q 0,-3 -0.0937,-4.82812 -0.0937,-1.82813 -0.65625,-2.90625 -0.5625,-1.125 -1.73437,-1.64063 -1.125,-0.5625 -3.23438,-0.9375 v -2.48437 l 10.96875,-0.42188 h 2.85938 l -0.51563,7.64063 0.65625,0.1875 q 3.46875,-3.51563 5.57813,-5.01563 2.15625,-1.5 4.3125,-2.29687 2.20312,-0.84375 4.64062,-0.84375 2.53125,0 4.5,0.60937 2.01563,0.5625 3.51563,1.78125 1.54687,1.21875 2.53125,3.04688 0.98437,1.78125 1.45312,4.3125 0.51563,2.53125 0.51563,6.42187 v 17.67188 q 0,3.23437 0.1875,4.6875 0.1875,1.45312 0.65625,2.25 0.46875,0.79687 1.35937,1.35937 0.89063,0.51563 3.09375,1.125 z"
         id="path14" /><path
         style="font-size:37.3333px;line-height:0.8;font-family:Arial;-inkscape-font-specification:'Arial, Normal';letter-spacing:10.5px"
         d="m 106.99602,621.75463 v -23.57029 h -8.804678 v -3.15364 h 21.182278 v 3.15364 h -8.84114 v 23.57029 z"
         id="path15" /><path
         style="font-size:37.3333px;line-height:0.8;font-family:Arial;-inkscape-font-specification:'Arial, Normal';text-align:center;letter-spacing:10.5px;text-anchor:middle"
         d="m 151.03766,595.0307 h 3.53645 v 15.44009 q 0,4.02864 -0.91145,6.39843 -0.91146,2.36979 -3.29948,3.86458 -2.36979,1.47656 -6.23437,1.47656 -3.7552,0 -6.14322,-1.29427 -2.38802,-1.29427 -3.40885,-3.73697 -1.02084,-2.46094 -1.02084,-6.70833 V 595.0307 h 3.53646 v 15.42186 q 0,3.48177 0.63802,5.14062 0.65625,1.64062 2.22396,2.53385 1.58593,0.89323 3.86458,0.89323 3.90103,0 5.55989,-1.76823 1.65885,-1.76822 1.65885,-6.79947 z m 26.72394,26.72393 v -23.57029 h -8.80468 v -3.15364 h 21.18228 v 3.15364 h -8.84114 v 23.57029 z m 24.7552,-13.01561 q 0,-6.65364 3.57291,-10.40885 3.57292,-3.77343 9.22395,-3.77343 3.70052,0 6.67187,1.76823 2.97135,1.76822 4.52083,4.9401 1.56771,3.15364 1.56771,7.16405 0,4.0651 -1.64063,7.27343 -1.64062,3.20834 -4.64843,4.86719 -3.00781,1.64062 -6.48958,1.64062 -3.77343,0 -6.74478,-1.82291 -2.97135,-1.82292 -4.5026,-4.97656 -1.53125,-3.15364 -1.53125,-6.67187 z m 3.64583,0.0547 q 0,4.83072 2.58854,7.61978 2.60677,2.77083 6.52603,2.77083 3.99219,0 6.5625,-2.80729 2.58854,-2.80729 2.58854,-7.96614 0,-3.26301 -1.11198,-5.68749 -1.09375,-2.44271 -3.22656,-3.77343 -2.11458,-1.34896 -4.75781,-1.34896 -3.7552,0 -6.47135,2.58854 -2.69791,2.57031 -2.69791,8.60416 z m 37.02342,12.96092 V 595.0307 H 255.035 q 3.57291,0 5.43229,0.72916 1.85937,0.71094 2.97135,2.53386 1.11198,1.82291 1.11198,4.02864 0,2.84375 -1.84115,4.79426 -1.84114,1.95052 -5.68749,2.47917 1.40364,0.67448 2.13281,1.33073 1.54948,1.42187 2.93489,3.55468 l 4.64844,7.27343 h -4.44792 l -3.53645,-5.55989 q -1.54948,-2.40625 -2.55208,-3.68229 -1.00261,-1.27604 -1.80469,-1.78645 -0.78385,-0.51042 -1.60416,-0.71094 -0.60157,-0.1276 -1.96875,-0.1276 h -4.10156 v 11.86717 z m 3.53646,-14.92967 h 7.60155 q 2.42448,0 3.79167,-0.49219 1.36718,-0.51041 2.07812,-1.60416 0.71094,-1.11198 0.71094,-2.40625 0,-1.89583 -1.38542,-3.11719 -1.36718,-1.22135 -4.33854,-1.22135 h -8.45832 z m 34.47132,14.92967 V 595.0307 h 3.53646 v 26.72393 z m 20.23437,0 V 595.0307 h 3.62761 l 14.03644,20.98175 V 595.0307 h 3.39062 v 26.72393 h -3.6276 l -14.03644,-20.99998 v 20.99998 z m 50.00257,-10.48176 v -3.13541 l 11.3203,-0.0182 v 9.91666 q -2.60677,2.07812 -5.3776,3.13541 -2.77083,1.03906 -5.68749,1.03906 -3.9375,0 -7.16406,-1.67708 -3.20833,-1.69531 -4.84895,-4.88541 -1.64063,-3.1901 -1.64063,-7.1276 0,-3.90104 1.6224,-7.27343 1.64062,-3.39062 4.70312,-5.03125 3.06249,-1.64062 7.05468,-1.64062 2.89843,0 5.23177,0.94791 2.35156,0.92969 3.68228,2.60677 1.33073,1.67709 2.02344,4.375 l -3.1901,0.875 q -0.60156,-2.04167 -1.49479,-3.20833 -0.89323,-1.16667 -2.55208,-1.85938 -1.65886,-0.71093 -3.68229,-0.71093 -2.42448,0 -4.19271,0.74739 -1.76822,0.72917 -2.86197,1.93229 -1.07552,1.20313 -1.67709,2.64323 -1.02083,2.47916 -1.02083,5.3776 0,3.57291 1.22136,5.97916 1.23958,2.40625 3.59114,3.57291 2.35156,1.16667 4.99479,1.16667 2.29687,0 4.48437,-0.875 2.18749,-0.89323 3.3177,-1.89583 v -4.97656 z"
         id="path16" /></g></g></svg>
